<?xml version="1.0" standalone="no"?>
<!DOCTYPE svg PUBLIC "-//W3C//DTD SVG 1.1//EN" "http://www.w3.org/Graphics/SVG/1.1/DTD/svg11.dtd" >
<svg xmlns="http://www.w3.org/2000/svg">
<metadata>
This is a custom SVG webfont generated by Font Squirrel.
Copyright   : c 2000 Borna Rayaneh
</metadata>
<defs>
<font id="BRoyaRegular" horiz-adv-x="1002" >
<font-face units-per-em="2048" ascent="1638" descent="-410" />
<missing-glyph horiz-adv-x="525" />
<glyph unicode=" "  horiz-adv-x="525" />
<glyph unicode="&#x09;" horiz-adv-x="525" />
<glyph unicode="&#xa0;" horiz-adv-x="525" />
<glyph unicode="!" horiz-adv-x="362" d="M194 947v269h167v-267l-51 -676h-62zM198 -29v158h159v-158h-159z" />
<glyph unicode="%" horiz-adv-x="939" d="M87 1037l117 113l113 -114l-113 -115zM176 -80l449 1259l71 -22l-457 -1259zM610 85l117 113l113 -113l-113 -117z" />
<glyph unicode="(" horiz-adv-x="557" d="M194 547q0 156 68 333q88 229 257 386l37 -46q-234 -365 -234 -670q0 -307 234 -674l-37 -45q-162 152 -250 368q-75 184 -75 348z" />
<glyph unicode=")" horiz-adv-x="557" d="M194 -124q233 366 233 670q0 307 -233 674l37 46q162 -153 250 -368q75 -183 75 -349q0 -153 -69 -333q-88 -230 -256 -385z" />
<glyph unicode="*" horiz-adv-x="1209" d="M194 376v160l341 -50v-54zM289 760l115 118l207 -274l-49 -45zM297 155l268 205l46 -44l-207 -272zM624 -48l49 341h56l49 -341h-154zM624 968h154l-49 -340h-56zM800 321l45 46l278 -202l-121 -121zM800 605l200 276l114 -112l-274 -207zM871 437v61l337 49v-159z" />
<glyph unicode="+" horiz-adv-x="876" d="M101 311v80h299v299h79v-299h299v-80h-299v-299h-79v299h-299z" />
<glyph unicode="," horiz-adv-x="356" d="M180 4v168h161v-128q0 -196 -137 -265l-18 40q94 52 94 185h-100z" />
<glyph unicode="-" horiz-adv-x="876" d="M101 311v80h677v-80h-677z" />
<glyph unicode="." horiz-adv-x="361" d="M195 1v163h165v-163h-165z" />
<glyph unicode="/" horiz-adv-x="670" d="M65 -98l451 1264l65 -26l-459 -1263z" />
<glyph unicode="0" d="M332 424l150 149l148 -149l-148 -148z" />
<glyph unicode="&#x6f0;" d="M332 424l150 149l148 -149l-148 -148z" />
<glyph unicode="&#x660;" d="M332 424l150 149l148 -149l-148 -148z" />
<glyph unicode="1" d="M308 965l81 179q141 -200 200 -519q47 -254 51 -667h-91q-11 679 -241 1007z" />
<glyph unicode="&#x6f1;" d="M308 965l81 179q141 -200 200 -519q47 -254 51 -667h-91q-11 679 -241 1007z" />
<glyph unicode="&#x661;" d="M308 965l81 179q141 -200 200 -519q47 -254 51 -667h-91q-11 679 -241 1007z" />
<glyph unicode="2" d="M181 966l72 164q74 -118 116 -157q72 -68 175 -68q109 0 150 60q33 48 33 162l81 28q-3 -233 -67 -327q-79 -115 -296 -115q64 -289 68 -755h-91q-12 678 -241 1008z" />
<glyph unicode="&#x6f2;" d="M181 966l72 164q74 -118 116 -157q72 -68 175 -68q109 0 150 60q33 48 33 162l81 28q-3 -233 -67 -327q-79 -115 -296 -115q64 -289 68 -755h-91q-12 678 -241 1008z" />
<glyph unicode="&#x662;" d="M181 966l72 164q74 -118 116 -157q72 -68 175 -68q109 0 150 60q33 48 33 162l81 28q-3 -233 -67 -327q-79 -115 -296 -115q64 -289 68 -755h-91q-12 678 -241 1008z" />
<glyph unicode="3" d="M84 965l74 163q63 -105 96 -142q71 -81 143 -81q68 0 102 74q25 55 26 133l58 25q29 -227 156 -227q104 0 95 210l79 35q4 -41 4 -80q0 -116 -43 -202q-55 -110 -160 -110q-76 0 -136 64q-55 -68 -98 -90q-46 -24 -130 -24q63 -294 67 -755h-91q-13 681 -242 1007z" />
<glyph unicode="&#x6f3;" d="M84 965l74 163q63 -105 96 -142q71 -81 143 -81q68 0 102 74q25 55 26 133l58 25q29 -227 156 -227q104 0 95 210l79 35q4 -41 4 -80q0 -116 -43 -202q-55 -110 -160 -110q-76 0 -136 64q-55 -68 -98 -90q-46 -24 -130 -24q63 -294 67 -755h-91q-13 681 -242 1007z" />
<glyph unicode="&#x663;" d="M84 965l74 163q63 -105 96 -142q71 -81 143 -81q68 0 102 74q25 55 26 133l58 25q29 -227 156 -227q104 0 95 210l79 35q4 -41 4 -80q0 -116 -43 -202q-55 -110 -160 -110q-76 0 -136 64q-55 -68 -98 -90q-46 -24 -130 -24q63 -294 67 -755h-91q-13 681 -242 1007z" />
<glyph unicode="4" d="M88 945l78 179q30 -34 126 -181q60 240 229 240q114 0 185 -90l-38 -67q-70 45 -124 45q-61 0 -104 -38.5t-43 -99.5q0 -63 52 -98q45 -30 111 -30q127 0 209 90l33 -57q-47 -80 -130 -128t-175 -48q-73 0 -143 32q62 -302 66 -736h-90q-12 656 -242 987z" />
<glyph unicode="&#x6f4;" d="M88 945l78 179q30 -34 126 -181q60 240 229 240q114 0 185 -90l-38 -67q-70 45 -124 45q-61 0 -104 -38.5t-43 -99.5q0 -63 52 -98q45 -30 111 -30q127 0 209 90l33 -57q-47 -80 -130 -128t-175 -48q-73 0 -143 32q62 -302 66 -736h-90q-12 656 -242 987z" />
<glyph unicode="&#x664;" d="M88 945l78 179q30 -34 126 -181q60 240 229 240q114 0 185 -90l-38 -67q-70 45 -124 45q-61 0 -104 -38.5t-43 -99.5q0 -63 52 -98q45 -30 111 -30q127 0 209 90l33 -57q-47 -80 -130 -128t-175 -48q-73 0 -143 32q62 -302 66 -736h-90q-12 656 -242 987z" />
<glyph unicode="5" d="M122 230q0 196 116 417q86 164 179 256l-52 46l78 157q194 -152 314 -353q132 -224 132 -449q0 -148 -71 -244q-63 -85 -143 -85q-120 0 -179 92q-57 -107 -162 -107q-110 0 -165 84q-47 71 -47 186zM235 297q0 -169 114 -169q91 0 152 98q38 -83 134 -83q143 0 143 175 q0 239 -291 524q-252 -306 -252 -545z" />
<glyph unicode="&#x6f5;" d="M122 230q0 196 116 417q86 164 179 256l-52 46l78 157q194 -152 314 -353q132 -224 132 -449q0 -148 -71 -244q-63 -85 -143 -85q-120 0 -179 92q-57 -107 -162 -107q-110 0 -165 84q-47 71 -47 186zM235 297q0 -169 114 -169q91 0 152 98q38 -83 134 -83q143 0 143 175 q0 239 -291 524q-252 -306 -252 -545z" />
<glyph unicode="&#x665;" d="M122 230q0 196 116 417q86 164 179 256l-52 46l78 157q194 -152 314 -353q132 -224 132 -449q0 -148 -71 -244q-63 -85 -143 -85q-120 0 -179 92q-57 -107 -162 -107q-110 0 -165 84q-47 71 -47 186zM235 297q0 -169 114 -169q91 0 152 98q38 -83 134 -83q143 0 143 175 q0 239 -291 524q-252 -306 -252 -545z" />
<glyph unicode="6" d="M127 -18q85 177 105 212q94 160 246 310q-301 17 -301 219q0 100 114 232q125 145 258 145q112 0 192 -81l-49 -88q-82 40 -142 40q-68 0 -149 -62q-86 -66 -86 -131q0 -73 108 -101q74 -19 165 -15q112 5 292 82l-39 -174q-239 -119 -398 -288q-110 -117 -241 -333z" />
<glyph unicode="&#x6f6;" d="M127 -18q85 177 105 212q94 160 246 310q-301 17 -301 219q0 100 114 232q125 145 258 145q112 0 192 -81l-49 -88q-82 40 -142 40q-68 0 -149 -62q-86 -66 -86 -131q0 -73 108 -101q74 -19 165 -15q112 5 292 82l-39 -174q-239 -119 -398 -288q-110 -117 -241 -333z" />
<glyph unicode="&#x666;" d="M127 -18q85 177 105 212q94 160 246 310q-301 17 -301 219q0 100 114 232q125 145 258 145q112 0 192 -81l-49 -88q-82 40 -142 40q-68 0 -149 -62q-86 -66 -86 -131q0 -73 108 -101q74 -19 165 -15q112 5 292 82l-39 -174q-239 -119 -398 -288q-110 -117 -241 -333z" />
<glyph unicode="7" d="M69 954q22 73 55 171q317 -416 382 -783q53 347 381 781q22 -64 56 -169q-124 -136 -236 -391q-137 -313 -152 -610h-97q-15 297 -152 610q-112 255 -237 391z" />
<glyph unicode="&#x6f7;" d="M69 954q22 73 55 171q317 -416 382 -783q53 347 381 781q22 -64 56 -169q-124 -136 -236 -391q-137 -313 -152 -610h-97q-15 297 -152 610q-112 255 -237 391z" />
<glyph unicode="&#x667;" d="M69 954q22 73 55 171q317 -416 382 -783q53 347 381 781q22 -64 56 -169q-124 -136 -236 -391q-137 -313 -152 -610h-97q-15 297 -152 610q-112 255 -237 391z" />
<glyph unicode="8" d="M69 124q127 138 237 390q136 311 152 611h97q14 -299 151 -611q111 -252 237 -390q-22 -74 -54 -171q-318 416 -383 782q-52 -346 -381 -780q-22 64 -56 169z" />
<glyph unicode="&#x6f8;" d="M69 124q127 138 237 390q136 311 152 611h97q14 -299 151 -611q111 -252 237 -390q-22 -74 -54 -171q-318 416 -383 782q-52 -346 -381 -780q-22 64 -56 169z" />
<glyph unicode="&#x668;" d="M69 124q127 138 237 390q136 311 152 611h97q14 -299 151 -611q111 -252 237 -390q-22 -74 -54 -171q-318 416 -383 782q-52 -346 -381 -780q-22 64 -56 169z" />
<glyph unicode="9" d="M184 744q0 98 83 236q95 158 198 158q190 0 190 -419q0 -273 48 -424q31 -98 105 -189l-91 -157q-156 212 -156 567q-247 0 -327 70q-50 44 -50 158zM305 773q0 -90 172 -90q35 0 71 5q0 168 -14 214q-21 69 -98 69q-44 0 -89 -78q-42 -72 -42 -120z" />
<glyph unicode="&#x6f9;" d="M184 744q0 98 83 236q95 158 198 158q190 0 190 -419q0 -273 48 -424q31 -98 105 -189l-91 -157q-156 212 -156 567q-247 0 -327 70q-50 44 -50 158zM305 773q0 -90 172 -90q35 0 71 5q0 168 -14 214q-21 69 -98 69q-44 0 -89 -78q-42 -72 -42 -120z" />
<glyph unicode="&#x669;" d="M184 744q0 98 83 236q95 158 198 158q190 0 190 -419q0 -273 48 -424q31 -98 105 -189l-91 -157q-156 212 -156 567q-247 0 -327 70q-50 44 -50 158zM305 773q0 -90 172 -90q35 0 71 5q0 168 -14 214q-21 69 -98 69q-44 0 -89 -78q-42 -72 -42 -120z" />
<glyph unicode=":" horiz-adv-x="364" d="M196 1v163h165v-163h-165zM196 358v163h165v-163h-165z" />
<glyph unicode="=" horiz-adv-x="876" d="M101 216v80h677v-80h-677zM101 405v80h677v-80h-677z" />
<glyph unicode="[" horiz-adv-x="598" d="M169 -281v1552h417v-52h-303v-1449h303v-51h-417z" />
<glyph unicode="]" horiz-adv-x="598" d="M180 -230h302v1449h-302v52h412v-1552h-412v51z" />
<glyph unicode="{" horiz-adv-x="981" d="M287 591v38q239 52 239 219q0 47 -16 122q-27 126 -27 188q0 151 101 257q96 102 248 127v-40q-94 -14 -155 -73q-67 -64 -67 -155q0 -46 13 -115q30 -160 30 -210q0 -224 -286 -336q283 -116 283 -350q0 -49 -27 -179q-17 -82 -17 -135q0 -180 226 -233v-36 q-152 27 -249 129q-103 107 -103 257q0 61 26 177q19 85 19 112q0 97 -72 163q-67 62 -166 73z" />
<glyph unicode="}" horiz-adv-x="981" d="M150 -280q94 14 155 73q66 63 66 155q0 48 -12 114q-30 164 -30 211q0 223 285 336q-282 116 -282 349q0 55 26 180q18 87 18 135q0 180 -226 233v36q152 -28 249 -129q103 -106 103 -257q0 -57 -27 -177q-18 -80 -18 -113q0 -97 73 -162q64 -58 165 -74v-37 q-239 -52 -239 -220q0 -52 15 -122q28 -131 28 -187q0 -151 -101 -257q-96 -102 -248 -127v40z" />
<glyph unicode="&#xab;" horiz-adv-x="748" d="M187 287q0 211 229 405q35 -21 53 -45q-170 -192 -170 -360t170 -357q-7 -11 -53 -48q-229 197 -229 405zM462 287q0 207 228 406q36 -22 57 -46q-174 -193 -174 -360q0 -168 174 -357q-9 -11 -56 -48q-229 200 -229 405z" />
<glyph unicode="&#xad;" horiz-adv-x="876" d="M101 311v80h677v-80h-677z" />
<glyph unicode="&#xb7;" horiz-adv-x="405" d="M85 768q0 49 34.5 85t83.5 36q51 0 87 -35t36 -86q0 -50 -35.5 -85t-85.5 -35q-49 0 -84.5 35.5t-35.5 84.5z" />
<glyph unicode="&#x2219;" horiz-adv-x="405" d="M85 768q0 49 34.5 85t83.5 36q51 0 87 -35t36 -86q0 -50 -35.5 -85t-85.5 -35q-49 0 -84.5 35.5t-35.5 84.5z" />
<glyph unicode="&#x2d9;" horiz-adv-x="405" d="M85 768q0 49 34.5 85t83.5 36q51 0 87 -35t36 -86q0 -50 -35.5 -85t-85.5 -35q-49 0 -84.5 35.5t-35.5 84.5z" />
<glyph unicode="&#xbb;" horiz-adv-x="747" d="M185 -70q9 -11 56 -48q228 200 228 405q0 207 -227 406q-37 -22 -57 -46q173 -193 173 -360q0 -168 -173 -357zM462 -70q8 -11 54 -48q229 197 229 405q0 211 -229 405q-35 -21 -54 -45q170 -192 170 -360t-170 -357z" />
<glyph unicode="&#xd7;" horiz-adv-x="946" d="M131 219l275 278l-275 278l62 56l274 -276l277 276l58 -56l-279 -278l279 -278l-58 -57l-277 275l-277 -275z" />
<glyph unicode="&#xf7;" horiz-adv-x="876" d="M101 311v80h677v-80h-677zM350 134q0 37 25.5 63t62.5 26t62.5 -26t25.5 -63q0 -36 -26 -62t-62 -26t-62 26t-26 62zM350 555q0 36 26 62t62 26t62 -26t26 -62q0 -37 -25.5 -63t-62.5 -26t-62.5 26t-25.5 63z" />
<glyph unicode="&#x2000;" horiz-adv-x="771" />
<glyph unicode="&#x2001;" horiz-adv-x="1542" />
<glyph unicode="&#x2002;" horiz-adv-x="771" />
<glyph unicode="&#x2003;" horiz-adv-x="1542" />
<glyph unicode="&#x2004;" horiz-adv-x="514" />
<glyph unicode="&#x2005;" horiz-adv-x="385" />
<glyph unicode="&#x2006;" horiz-adv-x="257" />
<glyph unicode="&#x2007;" horiz-adv-x="257" />
<glyph unicode="&#x2008;" horiz-adv-x="192" />
<glyph unicode="&#x2009;" horiz-adv-x="308" />
<glyph unicode="&#x200a;" horiz-adv-x="85" />
<glyph unicode="&#x2010;" horiz-adv-x="876" d="M101 311v80h677v-80h-677z" />
<glyph unicode="&#x2011;" horiz-adv-x="876" d="M101 311v80h677v-80h-677z" />
<glyph unicode="&#x2012;" horiz-adv-x="876" d="M101 311v80h677v-80h-677z" />
<glyph unicode="&#x2013;" horiz-adv-x="1024" d="M101 311v80h825v-80h-825z" />
<glyph unicode="&#x2014;" horiz-adv-x="2048" d="M101 311v80h1849v-80h-1849z" />
<glyph unicode="&#x2018;" horiz-adv-x="491" d="M125 1058q0 141 108 283q97 127 234 200v-55q-89 -59 -154 -145q-76 -101 -76 -193q0 -55 32 -98q39 47 90 47q102 0 102 -100q0 -59 -48 -92q-43 -30 -104 -30q-82 0 -133 50.5t-51 132.5z" />
<glyph unicode="&#x2019;" horiz-adv-x="491" d="M105 872v56q228 162 228 338q0 62 -33 101q-33 -49 -95 -49q-41 0 -69.5 28t-28.5 69q0 58 49 93q43 31 104 31q86 0 135 -50t49 -136q0 -143 -107 -281q-91 -118 -232 -200z" />
<glyph unicode="&#x201c;" horiz-adv-x="650" d="M70 936q0 201 203 359q0 -83 1 -93q4 -40 28 -56q-13 -6 -41 -26q-52 -51 -52 -95q82 -22 82 -112q0 -45 -31.5 -78t-76.5 -33q-52 0 -84 42q-29 38 -29 92zM340 936q0 201 203 359q0 -83 1 -93q4 -40 28 -56q-13 -6 -41 -26q-52 -51 -52 -95q82 -22 82 -112 q0 -45 -31.5 -78t-76.5 -33q-52 0 -84 42q-29 38 -29 92z" />
<glyph unicode="&#x201d;" horiz-adv-x="650" d="M78 941q13 6 41 26q52 51 52 95q-82 22 -82 112q0 46 31 78.5t77 32.5q54 0 85 -41q28 -37 28 -93q0 -201 -203 -359q0 83 -1 93q-4 40 -28 56zM348 941q13 6 41 26q52 51 52 95q-82 22 -82 112q0 46 31 78.5t77 32.5q54 0 85 -41q28 -37 28 -93q0 -201 -203 -359 q0 83 -1 93q-4 40 -28 56z" />
<glyph unicode="&#x2026;" horiz-adv-x="1083" d="M917 1v163h165v-163h-165zM556 1v163h165v-163h-165zM195 1v163h165v-163h-165z" />
<glyph unicode="&#x202f;" horiz-adv-x="308" />
<glyph unicode="&#x2039;" horiz-adv-x="512" d="M68 584l389 457v-75l-228 -382l222 -380v-75z" />
<glyph unicode="&#x203a;" horiz-adv-x="512" d="M64 129v75l231 382l-222 381v77l384 -458z" />
<glyph unicode="&#x205f;" horiz-adv-x="385" />
<glyph unicode="&#xe000;" horiz-adv-x="500" d="M0 0v0v0v0v0z" />
</font>
</defs>
</svg>
